# This file uses centimeters as units for non-parametric coordinates.

v 0.947850 -2.988108 -0.306687
v 0.805810 -2.988108 -0.585456
v 0.584578 -2.988108 -0.806688
v 0.305810 -2.988108 -0.948727
v -0.003207 -2.988108 -0.997671
v -0.312224 -2.988108 -0.948727
v -0.590993 -2.988108 -0.806687
v -0.812224 -2.988108 -0.585456
v -0.954264 -2.988108 -0.306687
v -1.003207 -2.988108 0.002330
v -0.954264 -2.988108 0.311347
v -0.812224 -2.988108 0.590115
v -0.590992 -2.988108 0.811347
v -0.312224 -2.988108 0.953387
v -0.003207 -2.988108 1.002330
v 0.305810 -2.988108 0.953386
v 0.584578 -2.988108 0.811347
v 0.805810 -2.988108 0.590115
v 0.947849 -2.988108 0.311347
v 0.996793 -2.988108 0.002330
v -0.003207 0.011892 0.002330
v 0.947850 -2.988108 -0.306687
v 0.805810 -2.988108 -0.585456
v 0.584578 -2.988108 -0.806688
v 0.305810 -2.988108 -0.948727
v -0.003207 -2.988108 -0.997671
v -0.312224 -2.988108 -0.948727
v -0.590993 -2.988108 -0.806687
v -0.812224 -2.988108 -0.585456
v -0.954264 -2.988108 -0.306687
v -1.003207 -2.988108 0.002330
v -0.954264 -2.988108 0.311347
v -0.812224 -2.988108 0.590115
v -0.590992 -2.988108 0.811347
v -0.312224 -2.988108 0.953387
v -0.003207 -2.988108 1.002330
v 0.305810 -2.988108 0.953386
v 0.584578 -2.988108 0.811347
v 0.805810 -2.988108 0.590115
v 0.947849 -2.988108 0.311347
v 0.996793 -2.988108 0.002330
v -0.003207 0.011892 0.002330
vt 0.737764 0.172746
vt 0.750000 0.250000
vt 0.702254 0.103054
vt 0.737764 0.327254
vt 0.702254 0.396946
vt 0.646946 0.452254
vt 0.577254 0.487764
vt 0.500000 0.500000
vt 0.422746 0.487764
vt 0.353054 0.452254
vt 0.297746 0.396946
vt 0.262236 0.327254
vt 0.250000 0.250000
vt 0.262236 0.172746
vt 0.297746 0.103054
vt 0.353054 0.047746
vt 0.422746 0.012236
vt 0.500000 -0.000000
vt 0.577254 0.012236
vt 0.646946 0.047746
vt 0.250000 0.500000
vt 0.275000 0.500000
vt 0.500000 1.000000
vt 0.300000 0.500000
vt 0.325000 0.500000
vt 0.350000 0.500000
vt 0.375000 0.500000
vt 0.400000 0.500000
vt 0.425000 0.500000
vt 0.450000 0.500000
vt 0.475000 0.500000
vt 0.500000 0.500000
vt 0.525000 0.500000
vt 0.550000 0.500000
vt 0.575000 0.500000
vt 0.600000 0.500000
vt 0.625000 0.500000
vt 0.650000 0.500000
vt 0.675000 0.500000
vt 0.700000 0.500000
vt 0.725000 0.500000
vt 0.750000 0.500000
vt 0.737764 0.172746
vt 0.750000 0.250000
vt 0.702254 0.103054
vt 0.737764 0.327254
vt 0.702254 0.396946
vt 0.646946 0.452254
vt 0.577254 0.487764
vt 0.500000 0.500000
vt 0.422746 0.487764
vt 0.353054 0.452254
vt 0.297746 0.396946
vt 0.262236 0.327254
vt 0.250000 0.250000
vt 0.262236 0.172746
vt 0.297746 0.103054
vt 0.353054 0.047746
vt 0.422746 0.012236
vt 0.500000 -0.000000
vt 0.577254 0.012236
vt 0.646946 0.047746
vt 0.250000 0.500000
vt 0.275000 0.500000
vt 0.500000 1.000000
vt 0.300000 0.500000
vt 0.325000 0.500000
vt 0.350000 0.500000
vt 0.375000 0.500000
vt 0.400000 0.500000
vt 0.425000 0.500000
vt 0.450000 0.500000
vt 0.475000 0.500000
vt 0.500000 0.500000
vt 0.525000 0.500000
vt 0.550000 0.500000
vt 0.575000 0.500000
vt 0.600000 0.500000
vt 0.625000 0.500000
vt 0.650000 0.500000
vt 0.675000 0.500000
vt 0.700000 0.500000
vt 0.725000 0.500000
vt 0.750000 0.500000
vn 0.000000 -1.000000 -0.000001
vn 0.000000 -1.000000 0.000000
vn 0.000000 -1.000000 0.000000
vn 0.000000 -1.000000 0.000000
vn 0.000000 -1.000000 0.000000
vn 0.000000 -1.000000 0.000000
vn 0.000000 -1.000000 0.000000
vn 0.000000 -1.000000 0.000000
vn 0.000000 -1.000000 0.000000
vn 0.000000 -1.000000 0.000000
vn 0.000000 -1.000000 0.000000
vn 0.000000 -1.000000 0.000000
vn 0.000000 -1.000000 0.000000
vn 0.000000 -1.000000 0.000000
vn 0.000000 -1.000000 0.000000
vn 0.000000 -1.000000 0.000000
vn 0.000000 -1.000000 0.000000
vn 0.000000 -1.000000 0.000000
vn 0.000000 -1.000000 0.000000
vn 0.000000 -1.000000 0.000000
vn 0.000000 -1.000000 0.000000
vn 0.000000 -1.000000 0.000000
vn 0.000000 -1.000000 0.000000
vn 0.000000 -1.000000 0.000000
vn 0.000000 -1.000000 0.000000
vn 0.000000 -1.000000 0.000000
vn 0.000000 -1.000000 0.000000
vn 0.000000 -1.000000 0.000000
vn 0.000000 -1.000000 0.000000
vn 0.000000 -1.000000 0.000000
vn 0.000000 -1.000000 0.000000
vn 0.000000 -1.000000 0.000000
vn 0.000000 -1.000000 0.000000
vn 0.000000 -1.000000 0.000000
vn 0.000000 -1.000000 0.000001
vn 0.000000 -1.000000 0.000000
vn 0.000000 -1.000000 0.000001
vn 0.000000 -1.000000 0.000000
vn 0.000000 -1.000000 0.000000
vn 0.000000 -1.000000 0.000000
vn 0.000000 -1.000000 0.000000
vn 0.000000 -1.000000 0.000000
vn 0.000000 -1.000000 0.000000
vn 0.000000 -1.000000 0.000000
vn 0.000000 -1.000000 0.000000
vn 0.000000 -1.000000 0.000000
vn 0.000000 -1.000000 -0.000001
vn 0.000000 -1.000000 0.000000
vn 0.000000 -1.000000 -0.000001
vn 0.000000 -1.000000 0.000002
vn 0.000000 -1.000000 0.000000
vn 0.000000 -1.000000 0.000002
vn 0.000000 -1.000000 0.000004
vn 0.000000 -1.000000 0.000000
vn 0.902252 0.316228 -0.293158
vn 0.767501 0.316228 -0.557622
vn 0.000000 1.000000 0.000000
vn 0.767501 0.316228 -0.557622
vn 0.557622 0.316228 -0.767501
vn 0.000000 1.000000 0.000000
vn 0.557622 0.316228 -0.767501
vn 0.293159 0.316228 -0.902252
vn 0.000000 1.000000 0.000000
vn 0.293159 0.316228 -0.902252
vn 0.000000 0.316228 -0.948683
vn 0.000000 1.000000 0.000000
vn 0.000000 0.316228 -0.948683
vn -0.293159 0.316228 -0.902252
vn 0.000000 1.000000 0.000000
vn -0.293159 0.316228 -0.902252
vn -0.557622 0.316228 -0.767501
vn 0.000000 1.000000 0.000000
vn -0.557622 0.316228 -0.767501
vn -0.767501 0.316228 -0.557622
vn 0.000000 1.000000 0.000000
vn -0.767501 0.316228 -0.557622
vn -0.902252 0.316228 -0.293159
vn 0.000000 1.000000 0.000000
vn -0.902252 0.316228 -0.293159
vn -0.948683 0.316228 0.000000
vn 0.000000 1.000000 0.000000
vn -0.948683 0.316228 0.000000
vn -0.902252 0.316228 0.293159
vn 0.000000 1.000000 0.000000
vn -0.902252 0.316228 0.293159
vn -0.767501 0.316228 0.557622
vn 0.000000 1.000000 0.000000
vn -0.767501 0.316228 0.557622
vn -0.557622 0.316228 0.767501
vn 0.000000 1.000000 0.000000
vn -0.557622 0.316228 0.767501
vn -0.293159 0.316228 0.902252
vn 0.000000 1.000000 0.000000
vn -0.293159 0.316228 0.902252
vn 0.000000 0.316228 0.948683
vn 0.000000 1.000000 0.000000
vn 0.000000 0.316228 0.948683
vn 0.293159 0.316228 0.902252
vn 0.000000 1.000000 0.000000
vn 0.293159 0.316228 0.902252
vn 0.557622 0.316228 0.767501
vn 0.000000 1.000000 0.000000
vn 0.557622 0.316228 0.767501
vn 0.767501 0.316228 0.557622
vn 0.000000 1.000000 0.000000
vn 0.767501 0.316228 0.557622
vn 0.902252 0.316228 0.293159
vn 0.000000 1.000000 0.000000
vn 0.902252 0.316228 0.293159
vn 0.948683 0.316228 0.000001
vn 0.000000 1.000000 0.000000
vn 0.948683 0.316228 0.000001
vn 0.902252 0.316228 -0.293158
vn 0.000000 1.000000 0.000000
vn 0.000000 -1.000000 -0.000001
vn 0.000000 -1.000000 0.000000
vn 0.000000 -1.000000 0.000000
vn 0.000000 -1.000000 0.000000
vn 0.000000 -1.000000 0.000000
vn 0.000000 -1.000000 0.000000
vn 0.000000 -1.000000 0.000000
vn 0.000000 -1.000000 0.000000
vn 0.000000 -1.000000 0.000000
vn 0.000000 -1.000000 0.000000
vn 0.000000 -1.000000 0.000000
vn 0.000000 -1.000000 0.000000
vn 0.000000 -1.000000 0.000000
vn 0.000000 -1.000000 0.000000
vn 0.000000 -1.000000 0.000000
vn 0.000000 -1.000000 0.000000
vn 0.000000 -1.000000 0.000000
vn 0.000000 -1.000000 0.000000
vn 0.000000 -1.000000 0.000000
vn 0.000000 -1.000000 0.000000
vn 0.000000 -1.000000 0.000000
vn 0.000000 -1.000000 0.000000
vn 0.000000 -1.000000 0.000000
vn 0.000000 -1.000000 0.000000
vn 0.000000 -1.000000 0.000000
vn 0.000000 -1.000000 0.000000
vn 0.000000 -1.000000 0.000000
vn 0.000000 -1.000000 0.000000
vn 0.000000 -1.000000 0.000000
vn 0.000000 -1.000000 0.000000
vn 0.000000 -1.000000 0.000000
vn 0.000000 -1.000000 0.000000
vn 0.000000 -1.000000 0.000000
vn 0.000000 -1.000000 0.000000
vn 0.000000 -1.000000 0.000001
vn 0.000000 -1.000000 0.000000
vn 0.000000 -1.000000 0.000001
vn 0.000000 -1.000000 0.000000
vn 0.000000 -1.000000 0.000000
vn 0.000000 -1.000000 0.000000
vn 0.000000 -1.000000 0.000000
vn 0.000000 -1.000000 0.000000
vn 0.000000 -1.000000 0.000000
vn 0.000000 -1.000000 0.000000
vn 0.000000 -1.000000 0.000000
vn 0.000000 -1.000000 0.000000
vn 0.000000 -1.000000 -0.000001
vn 0.000000 -1.000000 0.000000
vn 0.000000 -1.000000 -0.000001
vn 0.000000 -1.000000 0.000002
vn 0.000000 -1.000000 0.000000
vn 0.000000 -1.000000 0.000002
vn 0.000000 -1.000000 0.000004
vn 0.000000 -1.000000 0.000000
vn 0.902252 0.316228 -0.293158
vn 0.767501 0.316228 -0.557622
vn 0.000000 1.000000 0.000000
vn 0.767501 0.316228 -0.557622
vn 0.557622 0.316228 -0.767501
vn 0.000000 1.000000 0.000000
vn 0.557622 0.316228 -0.767501
vn 0.293159 0.316228 -0.902252
vn 0.000000 1.000000 0.000000
vn 0.293159 0.316228 -0.902252
vn 0.000000 0.316228 -0.948683
vn 0.000000 1.000000 0.000000
vn 0.000000 0.316228 -0.948683
vn -0.293159 0.316228 -0.902252
vn 0.000000 1.000000 0.000000
vn -0.293159 0.316228 -0.902252
vn -0.557622 0.316228 -0.767501
vn 0.000000 1.000000 0.000000
vn -0.557622 0.316228 -0.767501
vn -0.767501 0.316228 -0.557622
vn 0.000000 1.000000 0.000000
vn -0.767501 0.316228 -0.557622
vn -0.902252 0.316228 -0.293159
vn 0.000000 1.000000 0.000000
vn -0.902252 0.316228 -0.293159
vn -0.948683 0.316228 0.000000
vn 0.000000 1.000000 0.000000
vn -0.948683 0.316228 0.000000
vn -0.902252 0.316228 0.293159
vn 0.000000 1.000000 0.000000
vn -0.902252 0.316228 0.293159
vn -0.767501 0.316228 0.557622
vn 0.000000 1.000000 0.000000
vn -0.767501 0.316228 0.557622
vn -0.557622 0.316228 0.767501
vn 0.000000 1.000000 0.000000
vn -0.557622 0.316228 0.767501
vn -0.293159 0.316228 0.902252
vn 0.000000 1.000000 0.000000
vn -0.293159 0.316228 0.902252
vn 0.000000 0.316228 0.948683
vn 0.000000 1.000000 0.000000
vn 0.000000 0.316228 0.948683
vn 0.293159 0.316228 0.902252
vn 0.000000 1.000000 0.000000
vn 0.293159 0.316228 0.902252
vn 0.557622 0.316228 0.767501
vn 0.000000 1.000000 0.000000
vn 0.557622 0.316228 0.767501
vn 0.767501 0.316228 0.557622
vn 0.000000 1.000000 0.000000
vn 0.767501 0.316228 0.557622
vn 0.902252 0.316228 0.293159
vn 0.000000 1.000000 0.000000
vn 0.902252 0.316228 0.293159
vn 0.948683 0.316228 0.000001
vn 0.000000 1.000000 0.000000
vn 0.948683 0.316228 0.000001
vn 0.902252 0.316228 -0.293158
vn 0.000000 1.000000 0.000000
f 1/1/1 20/2/2 2/3/3
f 20/2/4 19/4/5 2/3/6
f 19/4/7 18/5/8 2/3/9
f 18/5/10 17/6/11 2/3/12
f 17/6/13 16/7/14 2/3/15
f 16/7/16 15/8/17 2/3/18
f 15/8/19 14/9/20 2/3/21
f 14/9/22 13/10/23 2/3/24
f 13/10/25 12/11/26 2/3/27
f 12/11/28 11/12/29 2/3/30
f 11/12/31 10/13/32 2/3/33
f 10/13/34 9/14/35 2/3/36
f 9/14/37 8/15/38 2/3/39
f 8/15/40 7/16/41 2/3/42
f 7/16/43 6/17/44 2/3/45
f 6/17/46 5/18/47 2/3/48
f 5/18/49 4/19/50 2/3/51
f 4/19/52 3/20/53 2/3/54
f 1/21/55 2/22/56 21/23/57
f 2/22/58 3/24/59 21/23/60
f 3/24/61 4/25/62 21/23/63
f 4/25/64 5/26/65 21/23/66
f 5/26/67 6/27/68 21/23/69
f 6/27/70 7/28/71 21/23/72
f 7/28/73 8/29/74 21/23/75
f 8/29/76 9/30/77 21/23/78
f 9/30/79 10/31/80 21/23/81
f 10/31/82 11/32/83 21/23/84
f 11/32/85 12/33/86 21/23/87
f 12/33/88 13/34/89 21/23/90
f 13/34/91 14/35/92 21/23/93
f 14/35/94 15/36/95 21/23/96
f 15/36/97 16/37/98 21/23/99
f 16/37/100 17/38/101 21/23/102
f 17/38/103 18/39/104 21/23/105
f 18/39/106 19/40/107 21/23/108
f 19/40/109 20/41/110 21/23/111
f 20/41/112 1/42/113 21/23/114
f 22/43/115 41/44/116 23/45/117
f 41/44/118 40/46/119 23/45/120
f 40/46/121 39/47/122 23/45/123
f 39/47/124 38/48/125 23/45/126
f 38/48/127 37/49/128 23/45/129
f 37/49/130 36/50/131 23/45/132
f 36/50/133 35/51/134 23/45/135
f 35/51/136 34/52/137 23/45/138
f 34/52/139 33/53/140 23/45/141
f 33/53/142 32/54/143 23/45/144
f 32/54/145 31/55/146 23/45/147
f 31/55/148 30/56/149 23/45/150
f 30/56/151 29/57/152 23/45/153
f 29/57/154 28/58/155 23/45/156
f 28/58/157 27/59/158 23/45/159
f 27/59/160 26/60/161 23/45/162
f 26/60/163 25/61/164 23/45/165
f 25/61/166 24/62/167 23/45/168
f 22/63/169 23/64/170 42/65/171
f 23/64/172 24/66/173 42/65/174
f 24/66/175 25/67/176 42/65/177
f 25/67/178 26/68/179 42/65/180
f 26/68/181 27/69/182 42/65/183
f 27/69/184 28/70/185 42/65/186
f 28/70/187 29/71/188 42/65/189
f 29/71/190 30/72/191 42/65/192
f 30/72/193 31/73/194 42/65/195
f 31/73/196 32/74/197 42/65/198
f 32/74/199 33/75/200 42/65/201
f 33/75/202 34/76/203 42/65/204
f 34/76/205 35/77/206 42/65/207
f 35/77/208 36/78/209 42/65/210
f 36/78/211 37/79/212 42/65/213
f 37/79/214 38/80/215 42/65/216
f 38/80/217 39/81/218 42/65/219
f 39/81/220 40/82/221 42/65/222
f 40/82/223 41/83/224 42/65/225
f 41/83/226 22/84/227 42/65/228
